<svg width="82" height="16" viewBox="0 0 82 16" fill="none" xmlns="http://www.w3.org/2000/svg">
<path d="M5.25 13.07C4.55 13.07 3.91533 12.93 3.346 12.65C2.77667 12.3607 2.28667 11.978 1.876 11.502C1.46533 11.026 1.148 10.4893 0.924 9.892C0.7 9.28533 0.588 8.66467 0.588 8.03C0.588 7.36733 0.704667 6.73733 0.938 6.14C1.17133 5.53333 1.498 4.99667 1.918 4.53C2.34733 4.054 2.84667 3.68067 3.416 3.41C3.98533 3.13 4.60133 2.99 5.264 2.99C5.964 2.99 6.59867 3.13467 7.168 3.424C7.73733 3.71333 8.22267 4.10067 8.624 4.586C9.03467 5.07133 9.352 5.61267 9.576 6.21C9.8 6.80733 9.912 7.41867 9.912 8.044C9.912 8.70667 9.79533 9.34133 9.562 9.948C9.32867 10.5453 9.002 11.082 8.582 11.558C8.162 12.0247 7.66733 12.3933 7.098 12.664C6.52867 12.9347 5.91267 13.07 5.25 13.07ZM5.25 12.188C5.81933 12.188 6.328 12.0713 6.776 11.838C7.23333 11.5953 7.62067 11.278 7.938 10.886C8.26467 10.4847 8.512 10.0367 8.68 9.542C8.848 9.04733 8.932 8.54333 8.932 8.03C8.932 7.48867 8.84333 6.97067 8.666 6.476C8.48867 5.972 8.232 5.52867 7.896 5.146C7.56933 4.754 7.182 4.446 6.734 4.222C6.286 3.98867 5.79133 3.872 5.25 3.872C4.69 3.872 4.18133 3.99333 3.724 4.236C3.276 4.46933 2.88867 4.78667 2.562 5.188C2.24467 5.58 1.99733 6.02333 1.82 6.518C1.652 7.01267 1.568 7.51667 1.568 8.03C1.568 8.57133 1.65667 9.094 1.834 9.598C2.01133 10.0927 2.26333 10.536 2.59 10.928C2.91667 11.3107 3.304 11.6187 3.752 11.852C4.20933 12.076 4.70867 12.188 5.25 12.188ZM6.146 9.948H7.112L9.688 13H8.722L6.146 9.948ZM15.7783 13.07C14.9943 13.07 14.3317 12.93 13.7903 12.65C13.249 12.37 12.8197 11.9967 12.5023 11.53C12.185 11.054 11.9517 10.5173 11.8023 9.92C11.6623 9.32267 11.5923 8.70667 11.5923 8.072V3.06H12.5583V8.072C12.5583 8.58533 12.6097 9.08933 12.7123 9.584C12.8243 10.0787 13.0017 10.522 13.2443 10.914C13.487 11.306 13.8137 11.6187 14.2243 11.852C14.635 12.076 15.1483 12.188 15.7643 12.188C16.399 12.188 16.9217 12.0713 17.3323 11.838C17.7523 11.5953 18.079 11.278 18.3123 10.886C18.555 10.494 18.7277 10.0553 18.8303 9.57C18.933 9.07533 18.9843 8.576 18.9843 8.072V3.06H19.9643V8.072C19.9643 8.73467 19.8897 9.36933 19.7403 9.976C19.591 10.5827 19.3483 11.1147 19.0123 11.572C18.6857 12.0293 18.2563 12.3933 17.7243 12.664C17.1923 12.9347 16.5437 13.07 15.7783 13.07ZM28.9787 12.132V13H22.3007V3.06H28.8527V3.928H23.2807V7.512H28.1387V8.338H23.2807V12.132H28.9787ZM37.5099 12.132V13H30.8319V3.06H37.3839V3.928H31.8119V7.512H36.6699V8.338H31.8119V12.132H37.5099ZM40.3432 4.866V13H39.3632V3.06H40.1752L46.6992 11.348V3.074H47.6792V13H46.7692L40.3432 4.866ZM50.1776 13V3.06H53.5516C54.6063 3.06 55.4836 3.284 56.1836 3.732C56.893 4.17067 57.425 4.768 57.7796 5.524C58.1343 6.27067 58.3116 7.10133 58.3116 8.016C58.3116 9.024 58.1156 9.90133 57.7236 10.648C57.341 11.3947 56.7903 11.9733 56.0716 12.384C55.3623 12.7947 54.5223 13 53.5516 13H50.1776ZM57.3316 8.016C57.3316 7.22267 57.1823 6.518 56.8836 5.902C56.5943 5.286 56.1696 4.80533 55.6096 4.46C55.0496 4.10533 54.3636 3.928 53.5516 3.928H51.1576V12.132H53.5516C54.373 12.132 55.0636 11.95 55.6236 11.586C56.1836 11.222 56.6083 10.732 56.8976 10.116C57.187 9.49067 57.3316 8.79067 57.3316 8.016ZM64.1895 13.07C63.4895 13.07 62.8548 12.93 62.2855 12.65C61.7161 12.37 61.2261 11.992 60.8155 11.516C60.4048 11.0307 60.0875 10.4893 59.8635 9.892C59.6395 9.28533 59.5275 8.66467 59.5275 8.03C59.5275 7.36733 59.6441 6.73733 59.8775 6.14C60.1108 5.53333 60.4375 4.99667 60.8575 4.53C61.2868 4.054 61.7861 3.68067 62.3555 3.41C62.9248 3.13 63.5408 2.99 64.2035 2.99C64.9035 2.99 65.5381 3.13467 66.1075 3.424C66.6768 3.71333 67.1621 4.10067 67.5635 4.586C67.9741 5.07133 68.2915 5.61267 68.5155 6.21C68.7395 6.80733 68.8515 7.41867 68.8515 8.044C68.8515 8.70667 68.7348 9.34133 68.5015 9.948C68.2681 10.5453 67.9415 11.082 67.5215 11.558C67.1015 12.0247 66.6068 12.3933 66.0375 12.664C65.4681 12.9347 64.8521 13.07 64.1895 13.07ZM60.5075 8.03C60.5075 8.57133 60.5961 9.094 60.7735 9.598C60.9508 10.0927 61.2028 10.536 61.5295 10.928C61.8561 11.3107 62.2435 11.6187 62.6915 11.852C63.1488 12.076 63.6481 12.188 64.1895 12.188C64.7588 12.188 65.2675 12.0713 65.7155 11.838C66.1728 11.5953 66.5601 11.278 66.8775 10.886C67.2041 10.4847 67.4515 10.0367 67.6195 9.542C67.7875 9.04733 67.8715 8.54333 67.8715 8.03C67.8715 7.48867 67.7828 6.97067 67.6055 6.476C67.4281 5.98133 67.1715 5.538 66.8355 5.146C66.5088 4.754 66.1215 4.446 65.6735 4.222C65.2255 3.998 64.7308 3.886 64.1895 3.886C63.6295 3.886 63.1208 4.00267 62.6635 4.236C62.2155 4.46933 61.8281 4.78667 61.5015 5.188C61.1841 5.58 60.9368 6.02333 60.7595 6.518C60.5915 7.01267 60.5075 7.51667 60.5075 8.03ZM79.5051 13V4.908L75.9071 11.194H75.2911L71.6791 4.908V13H70.6991V3.06H71.7071L75.5851 9.864L79.4911 3.06H80.4851V13H79.5051Z" fill="#9303A6"/>
<g clip-path="url(#clip0_13_733)">
<path fill-rule="evenodd" clip-rule="evenodd" d="M62.7566 9.00288H65.6302L66.0792 7.75929C66.1025 7.76681 66.1275 7.77075 66.1533 7.77075C66.2894 7.77075 66.4 7.66046 66.4 7.52403C66.4 7.38797 66.2897 7.27732 66.1533 7.27732C66.0173 7.27732 65.9066 7.38761 65.9066 7.52403C65.9066 7.57774 65.9238 7.62716 65.9528 7.66762L65.6978 7.87745C65.3409 8.17107 65.1171 8.035 65.1869 7.57882L65.2263 7.32208C65.2399 7.32459 65.2542 7.32566 65.2685 7.32566C65.4046 7.32566 65.5152 7.21537 65.5152 7.07895C65.5152 6.94288 65.4049 6.83224 65.2685 6.83224C65.1325 6.83224 65.0218 6.94252 65.0218 7.07895C65.0218 7.15665 65.058 7.22612 65.1142 7.27123L65.053 7.36791C64.7529 7.81837 64.5316 7.64578 64.4432 7.20069L64.2853 6.47345C64.3737 6.43585 64.436 6.34848 64.436 6.24607C64.436 6.11 64.3257 5.99936 64.1893 5.99936C64.0532 5.99936 63.9426 6.10965 63.9426 6.24607C63.9426 6.35994 64.0196 6.45554 64.1241 6.48419L64.0217 6.89884C63.9329 7.27875 63.8266 8.03572 63.3457 7.39047L63.2673 7.28377C63.3292 7.23901 63.3697 7.16596 63.3697 7.0836C63.3697 6.94754 63.2594 6.83689 63.1229 6.83689C62.9869 6.83689 62.8762 6.94718 62.8762 7.0836C62.8762 7.21967 62.9865 7.33032 63.1229 7.33032C63.1419 7.33032 63.1605 7.32817 63.1784 7.32387L63.1949 7.49145C63.2271 7.72026 63.2683 8.02999 63.0055 8.01531C62.8752 8.00815 62.8261 7.96375 62.7266 7.89285L62.4423 7.69125C62.4741 7.64972 62.4931 7.5978 62.4931 7.54122C62.4931 7.40515 62.3828 7.29451 62.2464 7.29451C62.1103 7.29451 61.9997 7.4048 61.9997 7.54122C61.9997 7.67765 62.11 7.78793 62.2464 7.78793C62.2786 7.78793 62.309 7.78185 62.3373 7.77075L62.7566 9.00288ZM62.7545 9.34698H65.6373V9.85867H62.7545V9.34698Z" fill="#9303A6"/>
</g>
<defs>
<clipPath id="clip0_13_733">
<rect width="4.4" height="3.85859" fill="white" transform="translate(62 6)"/>
</clipPath>
</defs>
</svg>
